# xmcd
#
# Track frame offsets: 
#        150
#        14044
#        31759
#        52243
#        71048
#        88356
#        103272
#        118455
#        132635
#        150762
#        168178
#
# Disc length: 2534 seconds
#
# Revision: 0
# Processed by: cddbd v1.5.2PL0 Copyright (c) Steve Scherf et al.
# Submitted via: ExactAudioCopy v1.2
#
DISCID=9f09e40b
DTITLE=Ken Tucker - Come on Over
DYEAR=2018
DGENRE=Blues
TTITLE0=Junkyard Hotrod
TTITLE1=9 Cent Bum in a Ten Cent Town
TTITLE2=Ain't No Plan
TTITLE3=Come on Over
TTITLE4=Hello Mr. Park Bench
TTITLE5=Big Train Tracks
TTITLE6=Heaven Please Smile Down
TTITLE7=Ain't No Goodtime
TTITLE8=Jesus Gonna Be Here
TTITLE9=Hey Mr. Moon
TTITLE10=Busseron Bottom Blues
EXTD=
EXTT0=
EXTT1=
EXTT2=
EXTT3=
EXTT4=
EXTT5=
EXTT6=
EXTT7=
EXTT8=
EXTT9=
EXTT10=
PLAYORDER=
